<svg width="180" height="180" viewBox="0 0 180 180" fill="none" xmlns="http://www.w3.org/2000/svg">
<path fill-rule="evenodd" clip-rule="evenodd" d="M26.25 151.875H55.1006L81.3919 124.594H117.403L95.6175 151.875H144.375V22.5H117.403L26.25 151.875ZM122.893 92.0813C122.893 92.0813 113.927 93.06 108.364 94.5394C101.771 96.2944 92.0625 100.862 92.0625 100.862L125.503 49.2638L122.893 92.0813Z" fill="black"/>
<path d="M70.3085 45.51C65.4485 45.51 62.4785 42.63 62.4785 37.86H67.1285C67.1285 40.05 68.2985 41.34 70.2485 41.34C72.3785 41.34 73.8485 39.78 73.8485 37.5C73.8485 35.25 72.5885 33.75 70.7285 33.75C69.3185 33.75 68.1785 34.38 67.3685 35.64L63.1985 34.8L67.8185 22.92H79.5785L78.8885 27.3H70.4885L69.1085 30.63C69.9185 30.09 70.8785 29.85 72.0785 29.85C76.1285 29.85 78.8285 32.73 78.8285 37.08C78.8285 41.94 75.2285 45.51 70.3085 45.51Z" fill="black"/>
<path d="M43.3062 36.39C43.3062 28.41 47.9862 22.5 54.3162 22.5C59.5662 22.5 62.7762 25.95 62.7762 31.62C62.7762 39.6 58.0962 45.51 51.7662 45.51C46.5162 45.51 43.3062 42.06 43.3062 36.39ZM47.9862 36.27C47.9862 39.6 49.3662 41.34 52.0362 41.34C55.5162 41.34 58.0962 37.26 58.0962 31.74C58.0962 28.41 56.7162 26.67 54.0462 26.67C50.5662 26.67 47.9862 30.75 47.9862 36.27Z" fill="black"/>
<path d="M34.08 45.51C29.22 45.51 26.25 42.63 26.25 37.86H30.9C30.9 40.05 32.07 41.34 34.02 41.34C36.15 41.34 37.62 39.78 37.62 37.5C37.62 35.25 36.36 33.75 34.5 33.75C33.09 33.75 31.95 34.38 31.14 35.64L26.97 34.8L31.59 22.92H43.35L42.66 27.3H34.26L32.88 30.63C33.69 30.09 34.65 29.85 35.85 29.85C39.9 29.85 42.6 32.73 42.6 37.08C42.6 41.94 39 45.51 34.08 45.51Z" fill="black"/>
</svg>
